<svg width="220" height="130" viewBox="0 0 220 130" fill="none" xmlns="http://www.w3.org/2000/svg">
<path d="M20 20V110" stroke="#282828"/>
<rect x="10" y="30" width="20" height="20" rx="3" fill="#BED2E6"/>
<path d="M19.658 43H17.5955V37.1818H19.6751C20.2603 37.1818 20.7641 37.2983 21.1864 37.5312C21.6088 37.7623 21.9336 38.0947 22.1609 38.5284C22.39 38.9621 22.5046 39.4811 22.5046 40.0852C22.5046 40.6913 22.39 41.2121 22.1609 41.6477C21.9336 42.0833 21.6069 42.4176 21.1808 42.6506C20.7565 42.8835 20.2489 43 19.658 43ZM18.8256 41.946H19.6069C19.9705 41.946 20.2764 41.8816 20.5245 41.7528C20.7745 41.6222 20.962 41.4205 21.087 41.1477C21.2139 40.8731 21.2773 40.5189 21.2773 40.0852C21.2773 39.6553 21.2139 39.304 21.087 39.0312C20.962 38.7585 20.7754 38.5578 20.5273 38.429C20.2792 38.3002 19.9734 38.2358 19.6097 38.2358H18.8256V41.946Z" fill="#282828"/>
<rect x="10" y="80" width="20" height="20" rx="3" fill="#BED2E6"/>
<path d="M21.1815 87.1818H22.4116V90.9602C22.4116 91.3845 22.3103 91.7557 22.1076 92.0739C21.9068 92.392 21.6256 92.6402 21.2638 92.8182C20.9021 92.9943 20.4807 93.0824 19.9996 93.0824C19.5167 93.0824 19.0943 92.9943 18.7326 92.8182C18.3709 92.6402 18.0896 92.392 17.8888 92.0739C17.6881 91.7557 17.5877 91.3845 17.5877 90.9602V87.1818H18.8178V90.8551C18.8178 91.0767 18.8661 91.2737 18.9627 91.446C19.0612 91.6184 19.1995 91.7538 19.3775 91.8523C19.5555 91.9508 19.7629 92 19.9996 92C20.2383 92 20.4457 91.9508 20.6218 91.8523C20.7998 91.7538 20.9371 91.6184 21.0337 91.446C21.1322 91.2737 21.1815 91.0767 21.1815 90.8551V87.1818Z" fill="#282828"/>
<rect x="10" y="60" width="20" height="10" rx="3" fill="#C89678"/>
<path d="M12.7533 67V62.6364H14.4749C14.8044 62.6364 15.0857 62.6953 15.3186 62.8132C15.553 62.9297 15.7313 63.0952 15.8534 63.3097C15.977 63.5227 16.0388 63.7734 16.0388 64.0618C16.0388 64.3516 15.9763 64.6009 15.8513 64.8097C15.7263 65.017 15.5452 65.1761 15.308 65.2869C15.0722 65.3977 14.7867 65.4531 14.4514 65.4531H13.2987V64.7116H14.3023C14.4784 64.7116 14.6247 64.6875 14.7412 64.6392C14.8577 64.5909 14.9443 64.5185 15.0012 64.4219C15.0594 64.3253 15.0885 64.2053 15.0885 64.0618C15.0885 63.9169 15.0594 63.7947 15.0012 63.6953C14.9443 63.5959 14.857 63.5206 14.7391 63.4695C14.6226 63.4169 14.4756 63.3906 14.298 63.3906H13.6759V67H12.7533ZM15.1098 65.0142L16.1943 67H15.1759L14.1148 65.0142H15.1098ZM18.1125 67.0639C17.7758 67.0639 17.4861 66.9957 17.2432 66.8594C17.0017 66.7216 16.8156 66.527 16.6849 66.2756C16.5542 66.0227 16.4889 65.7237 16.4889 65.3786C16.4889 65.0419 16.5542 64.7464 16.6849 64.4922C16.8156 64.2379 16.9996 64.0398 17.2368 63.8977C17.4754 63.7557 17.7552 63.6847 18.0763 63.6847C18.2922 63.6847 18.4932 63.7195 18.6792 63.7891C18.8667 63.8572 19.0301 63.9602 19.1693 64.098C19.3099 64.2358 19.4193 64.4091 19.4974 64.6179C19.5756 64.8253 19.6146 65.0682 19.6146 65.3466V65.5959H16.8511V65.0334H18.7602C18.7602 64.9027 18.7318 64.7869 18.675 64.6861C18.6182 64.5852 18.5393 64.5064 18.4385 64.4496C18.339 64.3913 18.2233 64.3622 18.0912 64.3622C17.9534 64.3622 17.8312 64.3942 17.7247 64.4581C17.6196 64.5206 17.5372 64.6051 17.4775 64.7116C17.4179 64.8168 17.3873 64.9339 17.3859 65.0632V65.598C17.3859 65.7599 17.4157 65.8999 17.4754 66.0178C17.5365 66.1357 17.6224 66.2266 17.7332 66.2905C17.844 66.3544 17.9754 66.3864 18.1274 66.3864C18.2282 66.3864 18.3206 66.3722 18.4044 66.3438C18.4882 66.3153 18.5599 66.2727 18.6196 66.2159C18.6792 66.1591 18.7247 66.0895 18.7559 66.0071L19.5954 66.0625C19.5528 66.2642 19.4655 66.4403 19.3334 66.5909C19.2027 66.7401 19.0336 66.8565 18.8263 66.9403C18.6203 67.0227 18.3824 67.0639 18.1125 67.0639ZM20.224 67V62.6364H21.1466V66.2393H23.0173V67H20.224ZM26.3236 62.6364H27.2462V65.4702C27.2462 65.7884 27.1702 66.0668 27.0182 66.3054C26.8676 66.544 26.6567 66.7301 26.3854 66.8636C26.1141 66.9957 25.798 67.0618 25.4372 67.0618C25.075 67.0618 24.7583 66.9957 24.4869 66.8636C24.2156 66.7301 24.0047 66.544 23.8541 66.3054C23.7036 66.0668 23.6283 65.7884 23.6283 65.4702V62.6364H24.5509V65.3913C24.5509 65.5575 24.5871 65.7053 24.6595 65.8345C24.7334 65.9638 24.8371 66.0653 24.9706 66.1392C25.1041 66.2131 25.2597 66.25 25.4372 66.25C25.6162 66.25 25.7718 66.2131 25.9039 66.1392C26.0374 66.0653 26.1404 65.9638 26.2128 65.8345C26.2867 65.7053 26.3236 65.5575 26.3236 65.3913V62.6364Z" fill="#282828"/>
<path d="M20.8464 122.606C20.4188 123.131 19.5812 123.131 19.1536 122.606L10.2237 111.627C9.68303 110.963 10.1837 110 11.0701 110L28.9299 110C29.8163 110 30.317 110.963 29.7763 111.627L20.8464 122.606Z" fill="#F19C99"/>
<path d="M19.1974 113.636L19.9986 115.162L20.8196 113.636H22.0611L20.7969 115.818L22.0952 118H20.8594L19.9986 116.491L19.152 118H17.902L19.1974 115.818L17.9474 113.636H19.1974Z" fill="#282828"/>
<path d="M80.8464 122.606C80.4188 123.131 79.5812 123.131 79.1536 122.606L70.2237 111.627C69.683 110.963 70.1837 110 71.0701 110L88.9299 110C89.8163 110 90.317 110.963 89.7763 111.627L80.8464 122.606Z" fill="#F19C99"/>
<path d="M79.1974 113.636L79.9986 115.162L80.8196 113.636H82.0611L80.7969 115.818L82.0952 118H80.8594L79.9986 116.491L79.152 118H77.902L79.1974 115.818L77.9474 113.636H79.1974Z" fill="#282828"/>
<path d="M110.846 122.606C110.419 123.131 109.581 123.131 109.154 122.606L100.224 111.627C99.683 110.963 100.184 110 101.07 110L118.93 110C119.816 110 120.317 110.963 119.776 111.627L110.846 122.606Z" fill="#F19C99"/>
<path d="M109.197 113.636L109.999 115.162L110.82 113.636H112.061L110.797 115.818L112.095 118H110.859L109.999 116.491L109.152 118H107.902L109.197 115.818L107.947 113.636H109.197Z" fill="#282828"/>
<path d="M170.846 122.606C170.419 123.131 169.581 123.131 169.154 122.606L160.224 111.627C159.683 110.963 160.184 110 161.07 110L178.93 110C179.816 110 180.317 110.963 179.776 111.627L170.846 122.606Z" fill="#F19C99"/>
<path d="M169.197 113.636L169.999 115.162L170.82 113.636H172.061L170.797 115.818L172.095 118H170.859L169.999 116.491L169.152 118H167.902L169.197 115.818L167.947 113.636H169.197Z" fill="#282828"/>
<path d="M199.154 122.606C199.581 123.131 200.419 123.131 200.846 122.606L209.776 111.627C210.317 110.963 209.816 110 208.93 110L191.07 110C190.184 110 189.683 110.963 190.224 111.627L199.154 122.606Z" fill="#F19C99"/>
<path d="M200.803 113.636L200.001 115.162L199.18 113.636H197.939L199.203 115.818L197.905 118H199.141L200.001 116.491L200.848 118H202.098L200.803 115.818L202.053 113.636H200.803Z" fill="#282828"/>
<path d="M80 100V110" stroke="#282828"/>
<path d="M70.3536 60.3536C70.5488 60.1583 70.5488 59.8417 70.3536 59.6464L67.1716 56.4645C66.9763 56.2692 66.6597 56.2692 66.4645 56.4645C66.2692 56.6597 66.2692 56.9763 66.4645 57.1716L69.2929 60L66.4645 62.8284C66.2692 63.0237 66.2692 63.3403 66.4645 63.5355C66.6597 63.7308 66.9763 63.7308 67.1716 63.5355L70.3536 60.3536ZM40 60L40 60.5L70 60.5L70 60L70 59.5L40 59.5L40 60Z" fill="#304443"/>
<path d="M119.646 59.6464C119.451 59.8417 119.451 60.1583 119.646 60.3536L122.828 63.5355C123.024 63.7308 123.34 63.7308 123.536 63.5355C123.731 63.3403 123.731 63.0237 123.536 62.8284L120.707 60L123.536 57.1716C123.731 56.9763 123.731 56.6597 123.536 56.4645C123.34 56.2692 123.024 56.2692 122.828 56.4645L119.646 59.6464ZM150 60V59.5H120V60V60.5H150V60Z" fill="#304443"/>
<path d="M110 100V110" stroke="#282828"/>
<rect x="70" y="80" width="20" height="20" rx="3" fill="#BED2E6"/>
<path d="M78.2362 93V87.1818H79.4663V91.9858H81.9606V93H78.2362Z" fill="#282828"/>
<rect x="100" y="80" width="20" height="20" rx="3" fill="#BED2E6"/>
<path d="M107.881 93V87.1818H110.176C110.616 87.1818 110.991 87.2604 111.301 87.4176C111.614 87.5729 111.851 87.7936 112.014 88.0795C112.179 88.3636 112.261 88.6979 112.261 89.0824C112.261 89.4687 112.178 89.8011 112.011 90.0795C111.845 90.3561 111.603 90.5682 111.287 90.7159C110.973 90.8636 110.592 90.9375 110.145 90.9375H108.608V89.9489H109.946C110.181 89.9489 110.376 89.9167 110.531 89.8523C110.687 89.7879 110.802 89.6913 110.878 89.5625C110.955 89.4337 110.994 89.2737 110.994 89.0824C110.994 88.8892 110.955 88.7263 110.878 88.5938C110.802 88.4612 110.686 88.3608 110.528 88.2926C110.373 88.2225 110.177 88.1875 109.94 88.1875H109.111V93H107.881ZM111.023 90.3523L112.469 93H111.111L109.696 90.3523H111.023Z" fill="#282828"/>
<path d="M80 80V65C80 62.2386 82.2386 60 85 60H105C107.761 60 110 62.2386 110 65V80" stroke="#282828"/>
<path d="M95 60V20" stroke="#282828"/>
<circle cx="95" cy="60" r="2.5" fill="white" stroke="#282828"/>
<rect x="85" y="30" width="20" height="20" rx="3" fill="#BED2E6"/>
<path d="M94.658 43H92.5955V37.1818H94.6751C95.2603 37.1818 95.7641 37.2983 96.1864 37.5312C96.6088 37.7623 96.9336 38.0947 97.1609 38.5284C97.39 38.9621 97.5046 39.4811 97.5046 40.0852C97.5046 40.6913 97.39 41.2121 97.1609 41.6477C96.9336 42.0833 96.6069 42.4176 96.1808 42.6506C95.7565 42.8835 95.2489 43 94.658 43ZM93.8256 41.946H94.6069C94.9705 41.946 95.2764 41.8816 95.5245 41.7528C95.7745 41.6222 95.962 41.4205 96.087 41.1477C96.2139 40.8731 96.2773 40.5189 96.2773 40.0852C96.2773 39.6553 96.2139 39.304 96.087 39.0312C95.962 38.7585 95.7754 38.5578 95.5273 38.429C95.2792 38.3002 94.9734 38.2358 94.6097 38.2358H93.8256V41.946Z" fill="#282828"/>
<path d="M170 100V110" stroke="#282828"/>
<path d="M200 100V110" stroke="#282828"/>
<rect x="160" y="80" width="20" height="20" rx="3" fill="#BED2E6"/>
<path d="M168.236 93V87.1818H169.466V91.9858H171.961V93H168.236Z" fill="#282828"/>
<rect x="190" y="80" width="20" height="20" rx="3" fill="#BED2E6"/>
<path d="M197.881 93V87.1818H200.176C200.616 87.1818 200.991 87.2604 201.301 87.4176C201.614 87.5729 201.851 87.7936 202.014 88.0795C202.179 88.3636 202.261 88.6979 202.261 89.0824C202.261 89.4687 202.178 89.8011 202.011 90.0795C201.845 90.3561 201.603 90.5682 201.287 90.7159C200.973 90.8636 200.592 90.9375 200.145 90.9375H198.608V89.9489H199.946C200.181 89.9489 200.376 89.9167 200.531 89.8523C200.687 89.7879 200.802 89.6913 200.878 89.5625C200.955 89.4337 200.994 89.2737 200.994 89.0824C200.994 88.8892 200.955 88.7263 200.878 88.5938C200.802 88.4612 200.686 88.3608 200.528 88.2926C200.373 88.2225 200.177 88.1875 199.94 88.1875H199.111V93H197.881ZM201.023 90.3523L202.469 93H201.111L199.696 90.3523H201.023Z" fill="#282828"/>
<path d="M170 80V65C170 62.2386 172.239 60 175 60H195C197.761 60 200 62.2386 200 65V80" stroke="#282828"/>
<path d="M185 60V20" stroke="#282828"/>
<circle cx="185" cy="60" r="2.5" fill="white" stroke="#282828"/>
<rect x="175" y="30" width="20" height="20" rx="3" fill="#BED2E6"/>
<path d="M184.658 43H182.596V37.1818H184.675C185.26 37.1818 185.764 37.2983 186.186 37.5312C186.609 37.7623 186.934 38.0947 187.161 38.5284C187.39 38.9621 187.505 39.4811 187.505 40.0852C187.505 40.6913 187.39 41.2121 187.161 41.6477C186.934 42.0833 186.607 42.4176 186.181 42.6506C185.757 42.8835 185.249 43 184.658 43ZM183.826 41.946H184.607C184.971 41.946 185.276 41.8816 185.525 41.7528C185.775 41.6222 185.962 41.4205 186.087 41.1477C186.214 40.8731 186.277 40.5189 186.277 40.0852C186.277 39.6553 186.214 39.304 186.087 39.0312C185.962 38.7585 185.775 38.5578 185.527 38.429C185.279 38.3002 184.973 38.2358 184.61 38.2358H183.826V41.946Z" fill="#282828"/>
<rect x="160" y="66" width="20" height="10" rx="3" fill="#C89678"/>
<path d="M163.855 69.8913C163.838 69.7195 163.765 69.5859 163.635 69.4908C163.506 69.3956 163.331 69.348 163.109 69.348C162.959 69.348 162.831 69.3693 162.728 69.4119C162.624 69.4531 162.544 69.5107 162.489 69.5845C162.435 69.6584 162.408 69.7422 162.408 69.8359C162.405 69.9141 162.422 69.9822 162.457 70.0405C162.494 70.0987 162.544 70.1491 162.608 70.1918C162.672 70.233 162.746 70.2692 162.83 70.3004C162.914 70.3303 163.003 70.3558 163.098 70.3771L163.491 70.4709C163.681 70.5135 163.856 70.5703 164.015 70.6413C164.174 70.7124 164.312 70.7997 164.428 70.9034C164.544 71.0071 164.635 71.1293 164.699 71.2699C164.764 71.4105 164.797 71.5717 164.799 71.7536C164.797 72.0206 164.729 72.2521 164.594 72.4482C164.461 72.6428 164.267 72.794 164.015 72.902C163.763 73.0085 163.46 73.0618 163.105 73.0618C162.753 73.0618 162.446 73.0078 162.184 72.8999C161.924 72.7919 161.721 72.6321 161.575 72.4205C161.43 72.2074 161.354 71.9439 161.347 71.63H162.24C162.25 71.7763 162.292 71.8984 162.366 71.9964C162.441 72.093 162.541 72.1662 162.666 72.2159C162.792 72.2642 162.935 72.2884 163.094 72.2884C163.25 72.2884 163.386 72.2656 163.501 72.2202C163.618 72.1747 163.708 72.1115 163.772 72.0305C163.836 71.9496 163.868 71.8565 163.868 71.7514C163.868 71.6534 163.839 71.571 163.78 71.5043C163.723 71.4375 163.64 71.3807 163.529 71.3338C163.419 71.2869 163.285 71.2443 163.126 71.206L162.651 71.0866C162.283 70.9972 161.993 70.8572 161.78 70.6669C161.566 70.4766 161.461 70.2202 161.462 69.8977C161.461 69.6335 161.531 69.4027 161.673 69.2053C161.816 69.0078 162.013 68.8537 162.263 68.7429C162.513 68.6321 162.797 68.5767 163.116 68.5767C163.439 68.5767 163.722 68.6321 163.964 68.7429C164.206 68.8537 164.395 69.0078 164.53 69.2053C164.665 69.4027 164.735 69.6314 164.739 69.8913H163.855ZM166.048 73L165.157 69.7273H166.076L166.583 71.9261H166.612L167.141 69.7273H168.042L168.579 71.9134H168.607L169.105 69.7273H170.022L169.133 73H168.172L167.61 70.9418H167.569L167.007 73H166.048ZM170.506 73V69.7273H171.413V73H170.506ZM170.962 69.3054C170.827 69.3054 170.711 69.2607 170.614 69.1712C170.519 69.0803 170.472 68.9716 170.472 68.8452C170.472 68.7202 170.519 68.6129 170.614 68.5234C170.711 68.4325 170.827 68.3871 170.962 68.3871C171.097 68.3871 171.212 68.4325 171.307 68.5234C171.403 68.6129 171.452 68.7202 171.452 68.8452C171.452 68.9716 171.403 69.0803 171.307 69.1712C171.212 69.2607 171.097 69.3054 170.962 69.3054ZM174.864 70.6605L174.033 70.7116C174.018 70.6406 173.988 70.5767 173.941 70.5199C173.894 70.4616 173.832 70.4155 173.756 70.3814C173.68 70.3459 173.59 70.3281 173.485 70.3281C173.344 70.3281 173.226 70.358 173.129 70.4176C173.033 70.4759 172.984 70.554 172.984 70.652C172.984 70.7301 173.016 70.7962 173.078 70.8501C173.141 70.9041 173.248 70.9474 173.4 70.9801L173.992 71.0994C174.31 71.1648 174.547 71.2699 174.704 71.4148C174.86 71.5597 174.938 71.75 174.938 71.9858C174.938 72.2003 174.875 72.3885 174.748 72.5504C174.623 72.7124 174.452 72.8388 174.233 72.9297C174.016 73.0192 173.765 73.0639 173.481 73.0639C173.047 73.0639 172.702 72.9737 172.445 72.7933C172.19 72.6115 172.04 72.3643 171.996 72.0518L172.888 72.005C172.915 72.1371 172.981 72.2379 173.084 72.3075C173.188 72.3757 173.321 72.4098 173.483 72.4098C173.642 72.4098 173.77 72.3793 173.866 72.3182C173.964 72.2557 174.014 72.1754 174.016 72.0774C174.014 71.995 173.979 71.9276 173.911 71.875C173.843 71.821 173.738 71.7798 173.596 71.7514L173.029 71.6385C172.709 71.5746 172.472 71.4638 172.315 71.3061C172.16 71.1484 172.083 70.9474 172.083 70.7031C172.083 70.4929 172.14 70.3118 172.253 70.1598C172.369 70.0078 172.53 69.8906 172.737 69.8082C172.946 69.7259 173.19 69.6847 173.47 69.6847C173.883 69.6847 174.209 69.772 174.446 69.9467C174.685 70.1214 174.824 70.3594 174.864 70.6605ZM176.417 71.108V73H175.51V68.6364H176.392V70.3047H176.43C176.504 70.1115 176.623 69.9602 176.788 69.8509C176.953 69.7401 177.16 69.6847 177.408 69.6847C177.635 69.6847 177.834 69.7344 178.003 69.8338C178.173 69.9318 178.305 70.0732 178.399 70.2578C178.494 70.4411 178.541 70.6605 178.54 70.9162V73H177.632V71.0781C177.633 70.8764 177.582 70.7195 177.478 70.6072C177.376 70.495 177.233 70.4389 177.048 70.4389C176.924 70.4389 176.815 70.4652 176.72 70.5178C176.626 70.5703 176.552 70.647 176.498 70.7479C176.446 70.8473 176.419 70.9673 176.417 71.108Z" fill="#282828"/>
<path d="M13.2077 10.832H12.6077V13H11.4317V7.464H13.1597C13.901 7.464 14.4583 7.60267 14.8317 7.88C15.205 8.152 15.3917 8.56533 15.3917 9.12C15.3917 9.48267 15.301 9.78133 15.1197 10.016C14.9437 10.2507 14.669 10.4507 14.2957 10.616L15.7277 13H14.3917L13.2077 10.832ZM12.6077 10H13.2237C13.5383 10 13.7757 9.93067 13.9357 9.792C14.0957 9.648 14.1757 9.424 14.1757 9.12C14.1757 8.83733 14.0903 8.632 13.9197 8.504C13.7543 8.37067 13.493 8.304 13.1357 8.304H12.6077V10ZM19.7885 10.784C19.7885 10.8373 19.7805 10.984 19.7645 11.224H17.1165C17.1539 11.608 17.2579 11.88 17.4285 12.04C17.5992 12.2 17.8312 12.28 18.1245 12.28C18.3059 12.28 18.4765 12.2507 18.6365 12.192C18.7965 12.1333 18.9699 12.04 19.1565 11.912L19.6285 12.552C19.1539 12.936 18.6179 13.128 18.0205 13.128C17.3539 13.128 16.8419 12.928 16.4845 12.528C16.1272 12.128 15.9485 11.5867 15.9485 10.904C15.9485 10.472 16.0232 10.0853 16.1725 9.744C16.3272 9.39733 16.5485 9.12533 16.8365 8.928C17.1299 8.73067 17.4765 8.632 17.8765 8.632C18.4792 8.632 18.9485 8.82133 19.2845 9.2C19.6205 9.57867 19.7885 10.1067 19.7885 10.784ZM18.6605 10.464C18.6605 9.76 18.4072 9.408 17.9005 9.408C17.6659 9.408 17.4819 9.496 17.3485 9.672C17.2205 9.84267 17.1432 10.1227 17.1165 10.512H18.6605V10.464ZM21.8108 7.464V12.056H24.0028L23.8748 13H20.6348V7.464H21.8108ZM28.638 11.176C28.638 11.5547 28.558 11.8907 28.398 12.184C28.238 12.4773 27.998 12.7093 27.678 12.88C27.3633 13.0453 26.9793 13.128 26.526 13.128C25.8433 13.128 25.3206 12.952 24.958 12.6C24.6006 12.2427 24.422 11.768 24.422 11.176V7.464H25.598V11.12C25.598 11.4933 25.6726 11.7733 25.822 11.96C25.9713 12.1413 26.206 12.232 26.526 12.232C26.846 12.232 27.0806 12.1413 27.23 11.96C27.3846 11.7733 27.462 11.4933 27.462 11.12V7.464H28.638V11.176Z" fill="#304443"/>
<path d="M84.2558 10.072C84.6292 10.1413 84.9305 10.2773 85.1598 10.48C85.3945 10.6773 85.5118 10.9813 85.5118 11.392C85.5118 11.9733 85.3038 12.3867 84.8878 12.632C84.4718 12.8773 83.8932 13 83.1518 13H81.4238V7.464H82.9358C83.6932 7.464 84.2718 7.576 84.6718 7.8C85.0718 8.024 85.2718 8.384 85.2718 8.88C85.2718 9.20533 85.1732 9.46933 84.9758 9.672C84.7838 9.86933 84.5438 10.0027 84.2558 10.072ZM82.5998 8.312V9.712H83.1758C83.4638 9.712 83.6852 9.65333 83.8398 9.536C83.9945 9.41333 84.0718 9.22933 84.0718 8.984C84.0718 8.73867 83.9892 8.56533 83.8238 8.464C83.6585 8.36267 83.3998 8.312 83.0478 8.312H82.5998ZM83.1598 12.128C83.5278 12.128 83.8078 12.0747 83.9998 11.968C84.1918 11.856 84.2878 11.648 84.2878 11.344C84.2878 10.7893 83.9465 10.512 83.2638 10.512H82.5998V12.128H83.1598ZM87.4577 8.76V13H86.3217V8.76H87.4577ZM86.8817 6.576C87.0844 6.576 87.2497 6.64 87.3777 6.768C87.5111 6.89067 87.5777 7.048 87.5777 7.24C87.5777 7.432 87.5111 7.592 87.3777 7.72C87.2497 7.84267 87.0844 7.904 86.8817 7.904C86.6791 7.904 86.5137 7.84267 86.3857 7.72C86.2577 7.592 86.1937 7.432 86.1937 7.24C86.1937 7.048 86.2577 6.89067 86.3857 6.768C86.5137 6.64 86.6791 6.576 86.8817 6.576ZM89.6355 13.128C89.2889 13.128 89.0195 13.0293 88.8275 12.832C88.6355 12.6293 88.5395 12.344 88.5395 11.976V7.072L89.6755 6.944V11.944C89.6755 12.1307 89.7529 12.224 89.9075 12.224C89.9929 12.224 90.0675 12.208 90.1315 12.176L90.3635 12.984C90.1449 13.08 89.9022 13.128 89.6355 13.128ZM92.0827 8.76V13H90.9467V8.76H92.0827ZM91.5067 6.576C91.7094 6.576 91.8747 6.64 92.0027 6.768C92.1361 6.89067 92.2027 7.048 92.2027 7.24C92.2027 7.432 92.1361 7.592 92.0027 7.72C91.8747 7.84267 91.7094 7.904 91.5067 7.904C91.3041 7.904 91.1387 7.84267 91.0107 7.72C90.8827 7.592 90.8187 7.432 90.8187 7.24C90.8187 7.048 90.8827 6.89067 91.0107 6.768C91.1387 6.64 91.3041 6.576 91.5067 6.576ZM95.5725 8.632C95.9459 8.632 96.2365 8.74667 96.4445 8.976C96.6525 9.2 96.7565 9.512 96.7565 9.912V13H95.6205V10.104C95.6205 9.87467 95.5805 9.71467 95.5005 9.624C95.4259 9.528 95.3112 9.48 95.1565 9.48C94.9965 9.48 94.8499 9.53067 94.7165 9.632C94.5885 9.728 94.4632 9.87467 94.3405 10.072V13H93.2045V8.76H94.1885L94.2765 9.296C94.4525 9.07733 94.6445 8.912 94.8525 8.8C95.0659 8.688 95.3059 8.632 95.5725 8.632ZM101.421 10.784C101.421 10.8373 101.413 10.984 101.397 11.224H98.7493C98.7867 11.608 98.8907 11.88 99.0613 12.04C99.232 12.2 99.464 12.28 99.7573 12.28C99.9387 12.28 100.109 12.2507 100.269 12.192C100.429 12.1333 100.603 12.04 100.789 11.912L101.261 12.552C100.787 12.936 100.251 13.128 99.6533 13.128C98.9867 13.128 98.4747 12.928 98.1173 12.528C97.76 12.128 97.5813 11.5867 97.5813 10.904C97.5813 10.472 97.656 10.0853 97.8053 9.744C97.96 9.39733 98.1813 9.12533 98.4693 8.928C98.7627 8.73067 99.1093 8.632 99.5093 8.632C100.112 8.632 100.581 8.82133 100.917 9.2C101.253 9.57867 101.421 10.1067 101.421 10.784ZM100.293 10.464C100.293 9.76 100.04 9.408 99.5333 9.408C99.2987 9.408 99.1147 9.496 98.9813 9.672C98.8533 9.84267 98.776 10.1227 98.7493 10.512H100.293V10.464ZM105.405 11.824C105.405 11.9893 105.429 12.112 105.477 12.192C105.525 12.2667 105.605 12.3227 105.717 12.36L105.477 13.112C105.227 13.0907 105.021 13.032 104.861 12.936C104.707 12.84 104.587 12.6907 104.501 12.488C104.224 12.9147 103.8 13.128 103.229 13.128C102.808 13.128 102.472 13.008 102.221 12.768C101.976 12.5227 101.853 12.2053 101.853 11.816C101.853 11.352 102.021 10.9973 102.357 10.752C102.693 10.5067 103.176 10.384 103.805 10.384H104.293V10.176C104.293 9.91467 104.235 9.73333 104.117 9.632C104 9.53067 103.805 9.48 103.533 9.48C103.235 9.48 102.861 9.55467 102.413 9.704L102.157 8.944C102.685 8.736 103.208 8.632 103.725 8.632C104.301 8.632 104.725 8.75733 104.997 9.008C105.269 9.25333 105.405 9.62133 105.405 10.112V11.824ZM103.541 12.312C103.861 12.312 104.112 12.1547 104.293 11.84V11.032H103.917C103.304 11.032 102.997 11.2613 102.997 11.72C102.997 11.9067 103.043 12.0533 103.133 12.16C103.229 12.2613 103.365 12.312 103.541 12.312ZM108.732 8.64C108.86 8.64 109.002 8.66133 109.156 8.704L108.964 9.8C108.815 9.76267 108.69 9.744 108.588 9.744C108.338 9.744 108.143 9.832 108.004 10.008C107.866 10.184 107.756 10.4507 107.676 10.808V13H106.54V8.76H107.524L107.628 9.584C107.73 9.28533 107.876 9.05333 108.068 8.888C108.266 8.72267 108.487 8.64 108.732 8.64Z" fill="#304443"/>
<path d="M40.5521 44.645H40.1771V46H39.4421V42.54H40.5221C40.9855 42.54 41.3338 42.6267 41.5671 42.8C41.8005 42.97 41.9171 43.2283 41.9171 43.575C41.9171 43.8017 41.8605 43.9883 41.7471 44.135C41.6371 44.2817 41.4655 44.4067 41.2321 44.51L42.1271 46H41.2921L40.5521 44.645ZM40.1771 44.125H40.5621C40.7588 44.125 40.9071 44.0817 41.0071 43.995C41.1071 43.905 41.1571 43.765 41.1571 43.575C41.1571 43.3983 41.1038 43.27 40.9971 43.19C40.8938 43.1067 40.7305 43.065 40.5071 43.065H40.1771V44.125ZM44.6652 44.615C44.6652 44.6483 44.6602 44.74 44.6502 44.89H42.9952C43.0185 45.13 43.0835 45.3 43.1902 45.4C43.2969 45.5 43.4419 45.55 43.6252 45.55C43.7385 45.55 43.8452 45.5317 43.9452 45.495C44.0452 45.4583 44.1535 45.4 44.2702 45.32L44.5652 45.72C44.2685 45.96 43.9335 46.08 43.5602 46.08C43.1435 46.08 42.8235 45.955 42.6002 45.705C42.3769 45.455 42.2652 45.1167 42.2652 44.69C42.2652 44.42 42.3119 44.1783 42.4052 43.965C42.5019 43.7483 42.6402 43.5783 42.8202 43.455C43.0035 43.3317 43.2202 43.27 43.4702 43.27C43.8469 43.27 44.1402 43.3883 44.3502 43.625C44.5602 43.8617 44.6652 44.1917 44.6652 44.615ZM43.9602 44.415C43.9602 43.975 43.8019 43.755 43.4852 43.755C43.3385 43.755 43.2235 43.81 43.1402 43.92C43.0602 44.0267 43.0119 44.2017 42.9952 44.445H43.9602V44.415ZM46.6091 43.27C46.9424 43.27 47.1891 43.3933 47.3491 43.64C47.5124 43.8833 47.5941 44.2267 47.5941 44.67C47.5941 44.94 47.5524 45.1817 47.4691 45.395C47.3858 45.6083 47.2641 45.7767 47.1041 45.9C46.9474 46.02 46.7608 46.08 46.5441 46.08C46.2741 46.08 46.0558 45.985 45.8891 45.795V47.02L45.1791 47.1V43.35H45.8041L45.8391 43.66C45.9391 43.53 46.0558 43.4333 46.1891 43.37C46.3258 43.3033 46.4658 43.27 46.6091 43.27ZM46.3341 45.55C46.6808 45.55 46.8541 45.2583 46.8541 44.675C46.8541 44.355 46.8158 44.1283 46.7391 43.995C46.6624 43.8617 46.5458 43.795 46.3891 43.795C46.2891 43.795 46.1958 43.8267 46.1091 43.89C46.0258 43.95 45.9524 44.0317 45.8891 44.135V45.29C46.0024 45.4633 46.1508 45.55 46.3341 45.55ZM48.8176 46.08C48.601 46.08 48.4326 46.0183 48.3126 45.895C48.1926 45.7683 48.1326 45.59 48.1326 45.36V42.295L48.8426 42.215V45.34C48.8426 45.4567 48.891 45.515 48.9876 45.515C49.041 45.515 49.0876 45.505 49.1276 45.485L49.2726 45.99C49.136 46.05 48.9843 46.08 48.8176 46.08ZM51.6377 45.265C51.6377 45.3683 51.6527 45.445 51.6827 45.495C51.7127 45.5417 51.7627 45.5767 51.8327 45.6L51.6827 46.07C51.526 46.0567 51.3977 46.02 51.2977 45.96C51.201 45.9 51.126 45.8067 51.0727 45.68C50.8994 45.9467 50.6344 46.08 50.2777 46.08C50.0144 46.08 49.8044 46.005 49.6477 45.855C49.4944 45.7017 49.4177 45.5033 49.4177 45.26C49.4177 44.97 49.5227 44.7483 49.7327 44.595C49.9427 44.4417 50.2444 44.365 50.6377 44.365H50.9427V44.235C50.9427 44.0717 50.906 43.9583 50.8327 43.895C50.7594 43.8317 50.6377 43.8 50.4677 43.8C50.281 43.8 50.0477 43.8467 49.7677 43.94L49.6077 43.465C49.9377 43.335 50.2644 43.27 50.5877 43.27C50.9477 43.27 51.2127 43.3483 51.3827 43.505C51.5527 43.6583 51.6377 43.8883 51.6377 44.195V45.265ZM50.4727 45.57C50.6727 45.57 50.8294 45.4717 50.9427 45.275V44.77H50.7077C50.3244 44.77 50.1327 44.9133 50.1327 45.2C50.1327 45.3167 50.161 45.4083 50.2177 45.475C50.2777 45.5383 50.3627 45.57 50.4727 45.57ZM53.4521 43.27C53.6287 43.27 53.7871 43.2967 53.9271 43.35C54.0704 43.4 54.2054 43.48 54.3321 43.59L54.0221 44.01C53.9354 43.9433 53.8504 43.895 53.7671 43.865C53.6871 43.835 53.5987 43.82 53.5021 43.82C53.1254 43.82 52.9371 44.11 52.9371 44.69C52.9371 44.9833 52.9854 45.1933 53.0821 45.32C53.1787 45.4467 53.3171 45.51 53.4971 45.51C53.5904 45.51 53.6754 45.4967 53.7521 45.47C53.8287 45.44 53.9187 45.3917 54.0221 45.325L54.3321 45.77C54.0787 45.9767 53.7887 46.08 53.4621 46.08C53.2021 46.08 52.9754 46.0233 52.7821 45.91C52.5921 45.7967 52.4454 45.6367 52.3421 45.43C52.2387 45.22 52.1871 44.975 52.1871 44.695C52.1871 44.415 52.2387 44.1683 52.3421 43.955C52.4454 43.7383 52.5921 43.57 52.7821 43.45C52.9754 43.33 53.1987 43.27 53.4521 43.27ZM56.8771 44.615C56.8771 44.6483 56.8721 44.74 56.8621 44.89H55.2071C55.2304 45.13 55.2954 45.3 55.4021 45.4C55.5088 45.5 55.6538 45.55 55.8371 45.55C55.9504 45.55 56.0571 45.5317 56.1571 45.495C56.2571 45.4583 56.3654 45.4 56.4821 45.32L56.7771 45.72C56.4804 45.96 56.1454 46.08 55.7721 46.08C55.3554 46.08 55.0354 45.955 54.8121 45.705C54.5888 45.455 54.4771 45.1167 54.4771 44.69C54.4771 44.42 54.5238 44.1783 54.6171 43.965C54.7138 43.7483 54.8521 43.5783 55.0321 43.455C55.2154 43.3317 55.4321 43.27 55.6821 43.27C56.0588 43.27 56.3521 43.3883 56.5621 43.625C56.7721 43.8617 56.8771 44.1917 56.8771 44.615ZM56.1721 44.415C56.1721 43.975 56.0138 43.755 55.6971 43.755C55.5504 43.755 55.4354 43.81 55.3521 43.92C55.2721 44.0267 55.2238 44.2017 55.2071 44.445H56.1721V44.415ZM59.7367 44.645H59.3617V46H58.6267V42.54H59.7067C60.1701 42.54 60.5184 42.6267 60.7517 42.8C60.9851 42.97 61.1017 43.2283 61.1017 43.575C61.1017 43.8017 61.0451 43.9883 60.9317 44.135C60.8217 44.2817 60.6501 44.4067 60.4167 44.51L61.3117 46H60.4767L59.7367 44.645ZM59.3617 44.125H59.7467C59.9434 44.125 60.0917 44.0817 60.1917 43.995C60.2917 43.905 60.3417 43.765 60.3417 43.575C60.3417 43.3983 60.2884 43.27 60.1817 43.19C60.0784 43.1067 59.9151 43.065 59.6917 43.065H59.3617V44.125ZM63.8498 44.615C63.8498 44.6483 63.8448 44.74 63.8348 44.89H62.1798C62.2031 45.13 62.2681 45.3 62.3748 45.4C62.4814 45.5 62.6264 45.55 62.8098 45.55C62.9231 45.55 63.0298 45.5317 63.1298 45.495C63.2298 45.4583 63.3381 45.4 63.4548 45.32L63.7498 45.72C63.4531 45.96 63.1181 46.08 62.7448 46.08C62.3281 46.08 62.0081 45.955 61.7848 45.705C61.5614 45.455 61.4498 45.1167 61.4498 44.69C61.4498 44.42 61.4964 44.1783 61.5898 43.965C61.6864 43.7483 61.8248 43.5783 62.0048 43.455C62.1881 43.3317 62.4048 43.27 62.6548 43.27C63.0314 43.27 63.3248 43.3883 63.5348 43.625C63.7448 43.8617 63.8498 44.1917 63.8498 44.615ZM63.1448 44.415C63.1448 43.975 62.9864 43.755 62.6698 43.755C62.5231 43.755 62.4081 43.81 62.3248 43.92C62.2448 44.0267 62.1964 44.2017 62.1798 44.445H63.1448V44.415ZM65.1137 42.54V45.41H66.4837L66.4037 46H64.3787V42.54H65.1137ZM69.3807 44.86C69.3807 45.0967 69.3307 45.3067 69.2307 45.49C69.1307 45.6733 68.9807 45.8183 68.7807 45.925C68.584 46.0283 68.344 46.08 68.0607 46.08C67.634 46.08 67.3073 45.97 67.0807 45.75C66.8573 45.5267 66.7457 45.23 66.7457 44.86V42.54H67.4807V44.825C67.4807 45.0583 67.5273 45.2333 67.6207 45.35C67.714 45.4633 67.8607 45.52 68.0607 45.52C68.2607 45.52 68.4073 45.4633 68.5007 45.35C68.5973 45.2333 68.6457 45.0583 68.6457 44.825V42.54H69.3807V44.86ZM46.165 49.35L45.6 52H44.735L44.355 49.985L43.975 52H43.12L42.54 49.35H43.255L43.58 51.475L44.02 49.35H44.73L45.125 51.475L45.485 49.35H46.165ZM47.2661 49.35V52H46.5561V49.35H47.2661ZM46.9061 47.985C47.0327 47.985 47.1361 48.025 47.2161 48.105C47.2994 48.1817 47.3411 48.28 47.3411 48.4C47.3411 48.52 47.2994 48.62 47.2161 48.7C47.1361 48.7767 47.0327 48.815 46.9061 48.815C46.7794 48.815 46.6761 48.7767 46.5961 48.7C46.5161 48.62 46.4761 48.52 46.4761 48.4C46.4761 48.28 46.5161 48.1817 46.5961 48.105C46.6761 48.025 46.7794 47.985 46.9061 47.985ZM49.5522 51.875C49.4555 51.9417 49.3455 51.9917 49.2222 52.025C49.1022 52.0617 48.9822 52.08 48.8622 52.08C48.5889 52.0767 48.3822 51.9983 48.2422 51.845C48.1022 51.6917 48.0322 51.4667 48.0322 51.17V49.85H47.6372V49.35H48.0322V48.77L48.7422 48.685V49.35H49.3522L49.2822 49.85H48.7422V51.155C48.7422 51.2817 48.7639 51.3733 48.8072 51.43C48.8505 51.4867 48.9172 51.515 49.0072 51.515C49.0972 51.515 49.1972 51.485 49.3072 51.425L49.5522 51.875ZM51.3466 49.27C51.5766 49.27 51.7566 49.3417 51.8866 49.485C52.0199 49.625 52.0866 49.82 52.0866 50.07V52H51.3766V50.19C51.3766 50.0467 51.3516 49.9467 51.3016 49.89C51.2516 49.83 51.1799 49.8 51.0866 49.8C50.8999 49.8 50.7299 49.9217 50.5766 50.165V52H49.8666V48.295L50.5766 48.22V49.65C50.6833 49.5233 50.7983 49.4283 50.9216 49.365C51.0483 49.3017 51.1899 49.27 51.3466 49.27ZM56.0078 51.265C56.0078 51.3683 56.0228 51.445 56.0528 51.495C56.0828 51.5417 56.1328 51.5767 56.2028 51.6L56.0528 52.07C55.8961 52.0567 55.7678 52.02 55.6678 51.96C55.5711 51.9 55.4961 51.8067 55.4428 51.68C55.2695 51.9467 55.0045 52.08 54.6478 52.08C54.3845 52.08 54.1745 52.005 54.0178 51.855C53.8645 51.7017 53.7878 51.5033 53.7878 51.26C53.7878 50.97 53.8928 50.7483 54.1028 50.595C54.3128 50.4417 54.6145 50.365 55.0078 50.365H55.3128V50.235C55.3128 50.0717 55.2761 49.9583 55.2028 49.895C55.1295 49.8317 55.0078 49.8 54.8378 49.8C54.6511 49.8 54.4178 49.8467 54.1378 49.94L53.9778 49.465C54.3078 49.335 54.6345 49.27 54.9578 49.27C55.3178 49.27 55.5828 49.3483 55.7528 49.505C55.9228 49.6583 56.0078 49.8883 56.0078 50.195V51.265ZM54.8428 51.57C55.0428 51.57 55.1995 51.4717 55.3128 51.275V50.77H55.0778C54.6945 50.77 54.5028 50.9133 54.5028 51.2C54.5028 51.3167 54.5311 51.4083 54.5878 51.475C54.6478 51.5383 54.7328 51.57 54.8428 51.57ZM60.3079 49.495C60.1346 49.5617 59.8796 49.595 59.5429 49.595C59.7096 49.6683 59.8329 49.76 59.9129 49.87C59.9929 49.9767 60.0329 50.1117 60.0329 50.275C60.0329 50.445 59.9879 50.5983 59.8979 50.735C59.8112 50.8683 59.6846 50.9733 59.5179 51.05C59.3546 51.1267 59.1629 51.165 58.9429 51.165C58.8262 51.165 58.7229 51.1533 58.6329 51.13C58.5662 51.1733 58.5329 51.2317 58.5329 51.305C58.5329 51.3583 58.5529 51.4017 58.5929 51.435C58.6362 51.465 58.7179 51.48 58.8379 51.48H59.2429C59.4396 51.48 59.6112 51.5133 59.7579 51.58C59.9079 51.6433 60.0229 51.7333 60.1029 51.85C60.1862 51.9633 60.2279 52.0933 60.2279 52.24C60.2279 52.51 60.1112 52.72 59.8779 52.87C59.6479 53.0233 59.3146 53.1 58.8779 53.1C58.5646 53.1 58.3162 53.0667 58.1329 53C57.9529 52.9367 57.8262 52.8433 57.7529 52.72C57.6796 52.5967 57.6429 52.4417 57.6429 52.255H58.2779C58.2779 52.3417 58.2946 52.41 58.3279 52.46C58.3612 52.5133 58.4212 52.5517 58.5079 52.575C58.5979 52.6017 58.7262 52.615 58.8929 52.615C59.1229 52.615 59.2829 52.5867 59.3729 52.53C59.4662 52.4733 59.5129 52.3933 59.5129 52.29C59.5129 52.1967 59.4779 52.125 59.4079 52.075C59.3379 52.025 59.2346 52 59.0979 52H58.7079C58.4446 52 58.2479 51.9517 58.1179 51.855C57.9879 51.755 57.9229 51.63 57.9229 51.48C57.9229 51.3867 57.9496 51.2967 58.0029 51.21C58.0596 51.12 58.1362 51.045 58.2329 50.985C58.0696 50.895 57.9496 50.79 57.8729 50.67C57.7996 50.5467 57.7629 50.4 57.7629 50.23C57.7629 50.0367 57.8096 49.8683 57.9029 49.725C57.9996 49.5783 58.1329 49.4667 58.3029 49.39C58.4762 49.31 58.6729 49.27 58.8929 49.27C59.1662 49.2767 59.3912 49.2533 59.5679 49.2C59.7446 49.1467 59.9329 49.0633 60.1329 48.95L60.3079 49.495ZM58.9079 49.745C58.7746 49.745 58.6679 49.7883 58.5879 49.875C58.5112 49.9583 58.4729 50.0733 58.4729 50.22C58.4729 50.37 58.5112 50.4883 58.5879 50.575C58.6679 50.6617 58.7762 50.705 58.9129 50.705C59.0562 50.705 59.1646 50.6633 59.2379 50.58C59.3112 50.4967 59.3479 50.3733 59.3479 50.21C59.3479 49.9 59.2012 49.745 58.9079 49.745ZM62.5703 51.265C62.5703 51.3683 62.5853 51.445 62.6153 51.495C62.6453 51.5417 62.6953 51.5767 62.7653 51.6L62.6153 52.07C62.4586 52.0567 62.3303 52.02 62.2303 51.96C62.1336 51.9 62.0586 51.8067 62.0053 51.68C61.832 51.9467 61.567 52.08 61.2103 52.08C60.947 52.08 60.737 52.005 60.5803 51.855C60.427 51.7017 60.3503 51.5033 60.3503 51.26C60.3503 50.97 60.4553 50.7483 60.6653 50.595C60.8753 50.4417 61.177 50.365 61.5703 50.365H61.8753V50.235C61.8753 50.0717 61.8386 49.9583 61.7653 49.895C61.692 49.8317 61.5703 49.8 61.4003 49.8C61.2136 49.8 60.9803 49.8467 60.7003 49.94L60.5403 49.465C60.8703 49.335 61.197 49.27 61.5203 49.27C61.8803 49.27 62.1453 49.3483 62.3153 49.505C62.4853 49.6583 62.5703 49.8883 62.5703 50.195V51.265ZM61.4053 51.57C61.6053 51.57 61.762 51.4717 61.8753 51.275V50.77H61.6403C61.257 50.77 61.0653 50.9133 61.0653 51.2C61.0653 51.3167 61.0936 51.4083 61.1503 51.475C61.2103 51.5383 61.2953 51.57 61.4053 51.57ZM64.8647 51.875C64.768 51.9417 64.658 51.9917 64.5347 52.025C64.4147 52.0617 64.2947 52.08 64.1747 52.08C63.9014 52.0767 63.6947 51.9983 63.5547 51.845C63.4147 51.6917 63.3447 51.4667 63.3447 51.17V49.85H62.9497V49.35H63.3447V48.77L64.0547 48.685V49.35H64.6647L64.5947 49.85H64.0547V51.155C64.0547 51.2817 64.0764 51.3733 64.1197 51.43C64.163 51.4867 64.2297 51.515 64.3197 51.515C64.4097 51.515 64.5097 51.485 64.6197 51.425L64.8647 51.875ZM67.3361 50.615C67.3361 50.6483 67.3311 50.74 67.3211 50.89H65.6661C65.6894 51.13 65.7544 51.3 65.8611 51.4C65.9678 51.5 66.1128 51.55 66.2961 51.55C66.4094 51.55 66.5161 51.5317 66.6161 51.495C66.7161 51.4583 66.8244 51.4 66.9411 51.32L67.2361 51.72C66.9394 51.96 66.6044 52.08 66.2311 52.08C65.8144 52.08 65.4944 51.955 65.2711 51.705C65.0478 51.455 64.9361 51.1167 64.9361 50.69C64.9361 50.42 64.9828 50.1783 65.0761 49.965C65.1728 49.7483 65.3111 49.5783 65.4911 49.455C65.6744 49.3317 65.8911 49.27 66.1411 49.27C66.5178 49.27 66.8111 49.3883 67.0211 49.625C67.2311 49.8617 67.3361 50.1917 67.3361 50.615ZM66.6311 50.415C66.6311 49.975 66.4728 49.755 66.1561 49.755C66.0094 49.755 65.8944 49.81 65.8111 49.92C65.7311 50.0267 65.6828 50.2017 65.6661 50.445H66.6311V50.415Z" fill="#304443"/>
<path d="M115.835 44.645H115.46V46H114.725V42.54H115.805C116.269 42.54 116.617 42.6267 116.85 42.8C117.084 42.97 117.2 43.2283 117.2 43.575C117.2 43.8017 117.144 43.9883 117.03 44.135C116.92 44.2817 116.749 44.4067 116.515 44.51L117.41 46H116.575L115.835 44.645ZM115.46 44.125H115.845C116.042 44.125 116.19 44.0817 116.29 43.995C116.39 43.905 116.44 43.765 116.44 43.575C116.44 43.3983 116.387 43.27 116.28 43.19C116.177 43.1067 116.014 43.065 115.79 43.065H115.46V44.125ZM119.948 44.615C119.948 44.6483 119.943 44.74 119.933 44.89H118.278C118.302 45.13 118.367 45.3 118.473 45.4C118.58 45.5 118.725 45.55 118.908 45.55C119.022 45.55 119.128 45.5317 119.228 45.495C119.328 45.4583 119.437 45.4 119.553 45.32L119.848 45.72C119.552 45.96 119.217 46.08 118.843 46.08C118.427 46.08 118.107 45.955 117.883 45.705C117.66 45.455 117.548 45.1167 117.548 44.69C117.548 44.42 117.595 44.1783 117.688 43.965C117.785 43.7483 117.923 43.5783 118.103 43.455C118.287 43.3317 118.503 43.27 118.753 43.27C119.13 43.27 119.423 43.3883 119.633 43.625C119.843 43.8617 119.948 44.1917 119.948 44.615ZM119.243 44.415C119.243 43.975 119.085 43.755 118.768 43.755C118.622 43.755 118.507 43.81 118.423 43.92C118.343 44.0267 118.295 44.2017 118.278 44.445H119.243V44.415ZM123.327 43.27C123.537 43.27 123.706 43.3417 123.832 43.485C123.962 43.6283 124.027 43.8233 124.027 44.07V46H123.317V44.19C123.317 43.93 123.231 43.8 123.057 43.8C122.964 43.8 122.882 43.83 122.812 43.89C122.742 43.95 122.671 44.0433 122.597 44.17V46H121.887V44.19C121.887 43.93 121.801 43.8 121.627 43.8C121.534 43.8 121.452 43.8317 121.382 43.895C121.312 43.955 121.242 44.0467 121.172 44.17V46H120.462V43.35H121.077L121.132 43.68C121.232 43.5467 121.344 43.445 121.467 43.375C121.594 43.305 121.739 43.27 121.902 43.27C122.052 43.27 122.182 43.3083 122.292 43.385C122.402 43.4583 122.482 43.5633 122.532 43.7C122.642 43.5567 122.761 43.45 122.887 43.38C123.017 43.3067 123.164 43.27 123.327 43.27ZM125.816 43.27C126.212 43.27 126.522 43.395 126.746 43.645C126.969 43.8917 127.081 44.235 127.081 44.675C127.081 44.955 127.029 45.2017 126.926 45.415C126.826 45.625 126.679 45.7883 126.486 45.905C126.296 46.0217 126.071 46.08 125.811 46.08C125.414 46.08 125.102 45.9567 124.876 45.71C124.652 45.46 124.541 45.115 124.541 44.675C124.541 44.395 124.591 44.15 124.691 43.94C124.794 43.7267 124.941 43.5617 125.131 43.445C125.324 43.3283 125.552 43.27 125.816 43.27ZM125.816 43.8C125.636 43.8 125.501 43.8717 125.411 44.015C125.324 44.155 125.281 44.375 125.281 44.675C125.281 44.975 125.324 45.1967 125.411 45.34C125.501 45.48 125.634 45.55 125.811 45.55C125.987 45.55 126.119 45.48 126.206 45.34C126.296 45.1967 126.341 44.975 126.341 44.675C126.341 44.375 126.297 44.155 126.211 44.015C126.124 43.8717 125.992 43.8 125.816 43.8ZM129.786 43.35L128.936 46H128.091L127.226 43.35H127.996L128.521 45.445L129.056 43.35H129.786ZM132.331 44.615C132.331 44.6483 132.326 44.74 132.316 44.89H130.661C130.685 45.13 130.75 45.3 130.856 45.4C130.963 45.5 131.108 45.55 131.291 45.55C131.405 45.55 131.511 45.5317 131.611 45.495C131.711 45.4583 131.82 45.4 131.936 45.32L132.231 45.72C131.935 45.96 131.6 46.08 131.226 46.08C130.81 46.08 130.49 45.955 130.266 45.705C130.043 45.455 129.931 45.1167 129.931 44.69C129.931 44.42 129.978 44.1783 130.071 43.965C130.168 43.7483 130.306 43.5783 130.486 43.455C130.67 43.3317 130.886 43.27 131.136 43.27C131.513 43.27 131.806 43.3883 132.016 43.625C132.226 43.8617 132.331 44.1917 132.331 44.615ZM131.626 44.415C131.626 43.975 131.468 43.755 131.151 43.755C131.005 43.755 130.89 43.81 130.806 43.92C130.726 44.0267 130.678 44.2017 130.661 44.445H131.626V44.415ZM135.546 43.27C135.779 43.27 135.961 43.3417 136.091 43.485C136.221 43.625 136.286 43.82 136.286 44.07V46H135.576V44.19C135.576 44.0467 135.551 43.9467 135.501 43.89C135.454 43.83 135.382 43.8 135.286 43.8C135.186 43.8 135.094 43.8317 135.011 43.895C134.931 43.955 134.852 44.0467 134.776 44.17V46H134.066V43.35H134.681L134.736 43.685C134.846 43.5483 134.966 43.445 135.096 43.375C135.229 43.305 135.379 43.27 135.546 43.27ZM138.076 43.27C138.473 43.27 138.783 43.395 139.006 43.645C139.23 43.8917 139.341 44.235 139.341 44.675C139.341 44.955 139.29 45.2017 139.186 45.415C139.086 45.625 138.94 45.7883 138.746 45.905C138.556 46.0217 138.331 46.08 138.071 46.08C137.675 46.08 137.363 45.9567 137.136 45.71C136.913 45.46 136.801 45.115 136.801 44.675C136.801 44.395 136.851 44.15 136.951 43.94C137.055 43.7267 137.201 43.5617 137.391 43.445C137.585 43.3283 137.813 43.27 138.076 43.27ZM138.076 43.8C137.896 43.8 137.761 43.8717 137.671 44.015C137.585 44.155 137.541 44.375 137.541 44.675C137.541 44.975 137.585 45.1967 137.671 45.34C137.761 45.48 137.895 45.55 138.071 45.55C138.248 45.55 138.38 45.48 138.466 45.34C138.556 45.1967 138.601 44.975 138.601 44.675C138.601 44.375 138.558 44.155 138.471 44.015C138.385 43.8717 138.253 43.8 138.076 43.8ZM141.361 43.27C141.595 43.27 141.776 43.3417 141.906 43.485C142.036 43.625 142.101 43.82 142.101 44.07V46H141.391V44.19C141.391 44.0467 141.366 43.9467 141.316 43.89C141.27 43.83 141.198 43.8 141.101 43.8C141.001 43.8 140.91 43.8317 140.826 43.895C140.746 43.955 140.668 44.0467 140.591 44.17V46H139.881V43.35H140.496L140.551 43.685C140.661 43.5483 140.781 43.445 140.911 43.375C141.045 43.305 141.195 43.27 141.361 43.27ZM143.437 46.08C143.22 46.08 143.052 46.0183 142.932 45.895C142.812 45.7683 142.752 45.59 142.752 45.36V42.295L143.462 42.215V45.34C143.462 45.4567 143.51 45.515 143.607 45.515C143.66 45.515 143.707 45.505 143.747 45.485L143.892 45.99C143.755 46.05 143.603 46.08 143.437 46.08ZM144.966 43.35V46H144.256V43.35H144.966ZM144.606 41.985C144.733 41.985 144.836 42.025 144.916 42.105C145 42.1817 145.041 42.28 145.041 42.4C145.041 42.52 145 42.62 144.916 42.7C144.836 42.7767 144.733 42.815 144.606 42.815C144.48 42.815 144.376 42.7767 144.296 42.7C144.216 42.62 144.176 42.52 144.176 42.4C144.176 42.28 144.216 42.1817 144.296 42.105C144.376 42.025 144.48 41.985 144.606 41.985ZM147.147 43.27C147.381 43.27 147.562 43.3417 147.692 43.485C147.822 43.625 147.887 43.82 147.887 44.07V46H147.177V44.19C147.177 44.0467 147.152 43.9467 147.102 43.89C147.056 43.83 146.984 43.8 146.887 43.8C146.787 43.8 146.696 43.8317 146.612 43.895C146.532 43.955 146.454 44.0467 146.377 44.17V46H145.667V43.35H146.282L146.337 43.685C146.447 43.5483 146.567 43.445 146.697 43.375C146.831 43.305 146.981 43.27 147.147 43.27ZM150.803 44.615C150.803 44.6483 150.798 44.74 150.788 44.89H149.133C149.156 45.13 149.221 45.3 149.328 45.4C149.435 45.5 149.58 45.55 149.763 45.55C149.876 45.55 149.983 45.5317 150.083 45.495C150.183 45.4583 150.291 45.4 150.408 45.32L150.703 45.72C150.406 45.96 150.071 46.08 149.698 46.08C149.281 46.08 148.961 45.955 148.738 45.705C148.515 45.455 148.403 45.1167 148.403 44.69C148.403 44.42 148.45 44.1783 148.543 43.965C148.64 43.7483 148.778 43.5783 148.958 43.455C149.141 43.3317 149.358 43.27 149.608 43.27C149.985 43.27 150.278 43.3883 150.488 43.625C150.698 43.8617 150.803 44.1917 150.803 44.615ZM150.098 44.415C150.098 43.975 149.94 43.755 149.623 43.755C149.476 43.755 149.361 43.81 149.278 43.92C149.198 44.0267 149.15 44.2017 149.133 44.445H150.098V44.415ZM153.293 45.265C153.293 45.3683 153.308 45.445 153.338 45.495C153.368 45.5417 153.418 45.5767 153.488 45.6L153.338 46.07C153.181 46.0567 153.053 46.02 152.953 45.96C152.856 45.9 152.781 45.8067 152.728 45.68C152.555 45.9467 152.29 46.08 151.933 46.08C151.67 46.08 151.46 46.005 151.303 45.855C151.15 45.7017 151.073 45.5033 151.073 45.26C151.073 44.97 151.178 44.7483 151.388 44.595C151.598 44.4417 151.9 44.365 152.293 44.365H152.598V44.235C152.598 44.0717 152.561 43.9583 152.488 43.895C152.415 43.8317 152.293 43.8 152.123 43.8C151.936 43.8 151.703 43.8467 151.423 43.94L151.263 43.465C151.593 43.335 151.92 43.27 152.243 43.27C152.603 43.27 152.868 43.3483 153.038 43.505C153.208 43.6583 153.293 43.8883 153.293 44.195V45.265ZM152.128 45.57C152.328 45.57 152.485 45.4717 152.598 45.275V44.77H152.363C151.98 44.77 151.788 44.9133 151.788 45.2C151.788 45.3167 151.816 45.4083 151.873 45.475C151.933 45.5383 152.018 45.57 152.128 45.57ZM155.372 43.275C155.452 43.275 155.541 43.2883 155.637 43.315L155.517 44C155.424 43.9767 155.346 43.965 155.282 43.965C155.126 43.965 155.004 44.02 154.917 44.13C154.831 44.24 154.762 44.4067 154.712 44.63V46H154.002V43.35H154.617L154.682 43.865C154.746 43.6783 154.837 43.5333 154.957 43.43C155.081 43.3267 155.219 43.275 155.372 43.275ZM120.459 49.495C120.286 49.5617 120.031 49.595 119.694 49.595C119.861 49.6683 119.984 49.76 120.064 49.87C120.144 49.9767 120.184 50.1117 120.184 50.275C120.184 50.445 120.139 50.5983 120.049 50.735C119.963 50.8683 119.836 50.9733 119.669 51.05C119.506 51.1267 119.314 51.165 119.094 51.165C118.978 51.165 118.874 51.1533 118.784 51.13C118.718 51.1733 118.684 51.2317 118.684 51.305C118.684 51.3583 118.704 51.4017 118.744 51.435C118.788 51.465 118.869 51.48 118.989 51.48H119.394C119.591 51.48 119.763 51.5133 119.909 51.58C120.059 51.6433 120.174 51.7333 120.254 51.85C120.338 51.9633 120.379 52.0933 120.379 52.24C120.379 52.51 120.263 52.72 120.029 52.87C119.799 53.0233 119.466 53.1 119.029 53.1C118.716 53.1 118.468 53.0667 118.284 53C118.104 52.9367 117.978 52.8433 117.904 52.72C117.831 52.5967 117.794 52.4417 117.794 52.255H118.429C118.429 52.3417 118.446 52.41 118.479 52.46C118.513 52.5133 118.573 52.5517 118.659 52.575C118.749 52.6017 118.878 52.615 119.044 52.615C119.274 52.615 119.434 52.5867 119.524 52.53C119.618 52.4733 119.664 52.3933 119.664 52.29C119.664 52.1967 119.629 52.125 119.559 52.075C119.489 52.025 119.386 52 119.249 52H118.859C118.596 52 118.399 51.9517 118.269 51.855C118.139 51.755 118.074 51.63 118.074 51.48C118.074 51.3867 118.101 51.2967 118.154 51.21C118.211 51.12 118.288 51.045 118.384 50.985C118.221 50.895 118.101 50.79 118.024 50.67C117.951 50.5467 117.914 50.4 117.914 50.23C117.914 50.0367 117.961 49.8683 118.054 49.725C118.151 49.5783 118.284 49.4667 118.454 49.39C118.628 49.31 118.824 49.27 119.044 49.27C119.318 49.2767 119.543 49.2533 119.719 49.2C119.896 49.1467 120.084 49.0633 120.284 48.95L120.459 49.495ZM119.059 49.745C118.926 49.745 118.819 49.7883 118.739 49.875C118.663 49.9583 118.624 50.0733 118.624 50.22C118.624 50.37 118.663 50.4883 118.739 50.575C118.819 50.6617 118.928 50.705 119.064 50.705C119.208 50.705 119.316 50.6633 119.389 50.58C119.463 50.4967 119.499 50.3733 119.499 50.21C119.499 49.9 119.353 49.745 119.059 49.745ZM122.722 51.265C122.722 51.3683 122.737 51.445 122.767 51.495C122.797 51.5417 122.847 51.5767 122.917 51.6L122.767 52.07C122.61 52.0567 122.482 52.02 122.382 51.96C122.285 51.9 122.21 51.8067 122.157 51.68C121.983 51.9467 121.718 52.08 121.362 52.08C121.098 52.08 120.888 52.005 120.732 51.855C120.578 51.7017 120.502 51.5033 120.502 51.26C120.502 50.97 120.607 50.7483 120.817 50.595C121.027 50.4417 121.328 50.365 121.722 50.365H122.027V50.235C122.027 50.0717 121.99 49.9583 121.917 49.895C121.843 49.8317 121.722 49.8 121.552 49.8C121.365 49.8 121.132 49.8467 120.852 49.94L120.692 49.465C121.022 49.335 121.348 49.27 121.672 49.27C122.032 49.27 122.297 49.3483 122.467 49.505C122.637 49.6583 122.722 49.8883 122.722 50.195V51.265ZM121.557 51.57C121.757 51.57 121.913 51.4717 122.027 51.275V50.77H121.792C121.408 50.77 121.217 50.9133 121.217 51.2C121.217 51.3167 121.245 51.4083 121.302 51.475C121.362 51.5383 121.447 51.57 121.557 51.57ZM125.016 51.875C124.919 51.9417 124.809 51.9917 124.686 52.025C124.566 52.0617 124.446 52.08 124.326 52.08C124.053 52.0767 123.846 51.9983 123.706 51.845C123.566 51.6917 123.496 51.4667 123.496 51.17V49.85H123.101V49.35H123.496V48.77L124.206 48.685V49.35H124.816L124.746 49.85H124.206V51.155C124.206 51.2817 124.228 51.3733 124.271 51.43C124.314 51.4867 124.381 51.515 124.471 51.515C124.561 51.515 124.661 51.485 124.771 51.425L125.016 51.875ZM126.04 49.35V52H125.33V49.35H126.04ZM125.68 47.985C125.807 47.985 125.91 48.025 125.99 48.105C126.074 48.1817 126.115 48.28 126.115 48.4C126.115 48.52 126.074 48.62 125.99 48.7C125.91 48.7767 125.807 48.815 125.68 48.815C125.554 48.815 125.45 48.7767 125.37 48.7C125.29 48.62 125.25 48.52 125.25 48.4C125.25 48.28 125.29 48.1817 125.37 48.105C125.45 48.025 125.554 47.985 125.68 47.985ZM128.222 49.27C128.455 49.27 128.637 49.3417 128.767 49.485C128.897 49.625 128.962 49.82 128.962 50.07V52H128.252V50.19C128.252 50.0467 128.227 49.9467 128.177 49.89C128.13 49.83 128.058 49.8 127.962 49.8C127.862 49.8 127.77 49.8317 127.687 49.895C127.607 49.955 127.528 50.0467 127.452 50.17V52H126.742V49.35H127.357L127.412 49.685C127.522 49.5483 127.642 49.445 127.772 49.375C127.905 49.305 128.055 49.27 128.222 49.27ZM132.007 49.495C131.834 49.5617 131.579 49.595 131.242 49.595C131.409 49.6683 131.532 49.76 131.612 49.87C131.692 49.9767 131.732 50.1117 131.732 50.275C131.732 50.445 131.687 50.5983 131.597 50.735C131.51 50.8683 131.384 50.9733 131.217 51.05C131.054 51.1267 130.862 51.165 130.642 51.165C130.525 51.165 130.422 51.1533 130.332 51.13C130.265 51.1733 130.232 51.2317 130.232 51.305C130.232 51.3583 130.252 51.4017 130.292 51.435C130.335 51.465 130.417 51.48 130.537 51.48H130.942C131.139 51.48 131.31 51.5133 131.457 51.58C131.607 51.6433 131.722 51.7333 131.802 51.85C131.885 51.9633 131.927 52.0933 131.927 52.24C131.927 52.51 131.81 52.72 131.577 52.87C131.347 53.0233 131.014 53.1 130.577 53.1C130.264 53.1 130.015 53.0667 129.832 53C129.652 52.9367 129.525 52.8433 129.452 52.72C129.379 52.5967 129.342 52.4417 129.342 52.255H129.977C129.977 52.3417 129.994 52.41 130.027 52.46C130.06 52.5133 130.12 52.5517 130.207 52.575C130.297 52.6017 130.425 52.615 130.592 52.615C130.822 52.615 130.982 52.5867 131.072 52.53C131.165 52.4733 131.212 52.3933 131.212 52.29C131.212 52.1967 131.177 52.125 131.107 52.075C131.037 52.025 130.934 52 130.797 52H130.407C130.144 52 129.947 51.9517 129.817 51.855C129.687 51.755 129.622 51.63 129.622 51.48C129.622 51.3867 129.649 51.2967 129.702 51.21C129.759 51.12 129.835 51.045 129.932 50.985C129.769 50.895 129.649 50.79 129.572 50.67C129.499 50.5467 129.462 50.4 129.462 50.23C129.462 50.0367 129.509 49.8683 129.602 49.725C129.699 49.5783 129.832 49.4667 130.002 49.39C130.175 49.31 130.372 49.27 130.592 49.27C130.865 49.2767 131.09 49.2533 131.267 49.2C131.444 49.1467 131.632 49.0633 131.832 48.95L132.007 49.495ZM130.607 49.745C130.474 49.745 130.367 49.7883 130.287 49.875C130.21 49.9583 130.172 50.0733 130.172 50.22C130.172 50.37 130.21 50.4883 130.287 50.575C130.367 50.6617 130.475 50.705 130.612 50.705C130.755 50.705 130.864 50.6633 130.937 50.58C131.01 50.4967 131.047 50.3733 131.047 50.21C131.047 49.9 130.9 49.745 130.607 49.745ZM134.713 48.745C134.593 48.745 134.506 48.7733 134.453 48.83C134.403 48.8867 134.378 48.9783 134.378 49.105V49.35H135.008L134.928 49.85H134.378V52H133.668V49.85H133.248V49.35H133.668V49.085C133.668 48.8283 133.751 48.62 133.918 48.46C134.088 48.2967 134.328 48.215 134.638 48.215C134.884 48.215 135.118 48.2683 135.338 48.375L135.143 48.845C134.999 48.7783 134.856 48.745 134.713 48.745ZM137.5 52H136.885L136.85 51.645C136.757 51.7917 136.644 51.9017 136.51 51.975C136.377 52.045 136.222 52.08 136.045 52.08C135.805 52.08 135.622 52.0083 135.495 51.865C135.369 51.7183 135.305 51.515 135.305 51.255V49.35H136.015V51.165C136.015 51.305 136.039 51.405 136.085 51.465C136.132 51.5217 136.205 51.55 136.305 51.55C136.495 51.55 136.657 51.435 136.79 51.205V49.35H137.5V52ZM139.682 49.27C139.915 49.27 140.097 49.3417 140.227 49.485C140.357 49.625 140.422 49.82 140.422 50.07V52H139.712V50.19C139.712 50.0467 139.687 49.9467 139.637 49.89C139.59 49.83 139.518 49.8 139.422 49.8C139.322 49.8 139.23 49.8317 139.147 49.895C139.067 49.955 138.988 50.0467 138.912 50.17V52H138.202V49.35H138.817L138.872 49.685C138.982 49.5483 139.102 49.445 139.232 49.375C139.365 49.305 139.515 49.27 139.682 49.27ZM142.202 49.27C142.379 49.27 142.537 49.2967 142.677 49.35C142.82 49.4 142.955 49.48 143.082 49.59L142.772 50.01C142.685 49.9433 142.6 49.895 142.517 49.865C142.437 49.835 142.349 49.82 142.252 49.82C141.875 49.82 141.687 50.11 141.687 50.69C141.687 50.9833 141.735 51.1933 141.832 51.32C141.929 51.4467 142.067 51.51 142.247 51.51C142.34 51.51 142.425 51.4967 142.502 51.47C142.579 51.44 142.669 51.3917 142.772 51.325L143.082 51.77C142.829 51.9767 142.539 52.08 142.212 52.08C141.952 52.08 141.725 52.0233 141.532 51.91C141.342 51.7967 141.195 51.6367 141.092 51.43C140.989 51.22 140.937 50.975 140.937 50.695C140.937 50.415 140.989 50.1683 141.092 49.955C141.195 49.7383 141.342 49.57 141.532 49.45C141.725 49.33 141.949 49.27 142.202 49.27ZM145.07 51.875C144.973 51.9417 144.863 51.9917 144.74 52.025C144.62 52.0617 144.5 52.08 144.38 52.08C144.106 52.0767 143.9 51.9983 143.76 51.845C143.62 51.6917 143.55 51.4667 143.55 51.17V49.85H143.155V49.35H143.55V48.77L144.26 48.685V49.35H144.87L144.8 49.85H144.26V51.155C144.26 51.2817 144.281 51.3733 144.325 51.43C144.368 51.4867 144.435 51.515 144.525 51.515C144.615 51.515 144.715 51.485 144.825 51.425L145.07 51.875ZM146.094 49.35V52H145.384V49.35H146.094ZM145.734 47.985C145.861 47.985 145.964 48.025 146.044 48.105C146.128 48.1817 146.169 48.28 146.169 48.4C146.169 48.52 146.128 48.62 146.044 48.7C145.964 48.7767 145.861 48.815 145.734 48.815C145.608 48.815 145.504 48.7767 145.424 48.7C145.344 48.62 145.304 48.52 145.304 48.4C145.304 48.28 145.344 48.1817 145.424 48.105C145.504 48.025 145.608 47.985 145.734 47.985ZM147.91 49.27C148.307 49.27 148.617 49.395 148.84 49.645C149.064 49.8917 149.175 50.235 149.175 50.675C149.175 50.955 149.124 51.2017 149.02 51.415C148.92 51.625 148.774 51.7883 148.58 51.905C148.39 52.0217 148.165 52.08 147.905 52.08C147.509 52.08 147.197 51.9567 146.97 51.71C146.747 51.46 146.635 51.115 146.635 50.675C146.635 50.395 146.685 50.15 146.785 49.94C146.889 49.7267 147.035 49.5617 147.225 49.445C147.419 49.3283 147.647 49.27 147.91 49.27ZM147.91 49.8C147.73 49.8 147.595 49.8717 147.505 50.015C147.419 50.155 147.375 50.375 147.375 50.675C147.375 50.975 147.419 51.1967 147.505 51.34C147.595 51.48 147.729 51.55 147.905 51.55C148.082 51.55 148.214 51.48 148.3 51.34C148.39 51.1967 148.435 50.975 148.435 50.675C148.435 50.375 148.392 50.155 148.305 50.015C148.219 49.8717 148.087 49.8 147.91 49.8ZM151.195 49.27C151.429 49.27 151.61 49.3417 151.74 49.485C151.87 49.625 151.935 49.82 151.935 50.07V52H151.225V50.19C151.225 50.0467 151.2 49.9467 151.15 49.89C151.104 49.83 151.032 49.8 150.935 49.8C150.835 49.8 150.744 49.8317 150.66 49.895C150.58 49.955 150.502 50.0467 150.425 50.17V52H149.715V49.35H150.33L150.385 49.685C150.495 49.5483 150.615 49.445 150.745 49.375C150.879 49.305 151.029 49.27 151.195 49.27Z" fill="#304443"/>
<path d="M173.803 7.336C174.203 7.336 174.55 7.39467 174.843 7.512C175.142 7.624 175.417 7.79733 175.667 8.032L175.107 8.68C174.91 8.52 174.713 8.40267 174.515 8.328C174.318 8.25333 174.107 8.216 173.883 8.216C173.638 8.216 173.441 8.26933 173.291 8.376C173.147 8.47733 173.075 8.624 173.075 8.816C173.075 8.94933 173.105 9.05867 173.163 9.144C173.227 9.22933 173.337 9.30933 173.491 9.384C173.646 9.45867 173.878 9.544 174.187 9.64C174.737 9.816 175.147 10.0347 175.419 10.296C175.691 10.552 175.827 10.92 175.827 11.4C175.827 11.7413 175.742 12.0427 175.571 12.304C175.401 12.56 175.153 12.7627 174.827 12.912C174.502 13.056 174.121 13.128 173.683 13.128C173.246 13.128 172.857 13.0587 172.515 12.92C172.174 12.7813 171.881 12.592 171.635 12.352L172.235 11.688C172.449 11.8693 172.67 12.008 172.899 12.104C173.129 12.1947 173.379 12.24 173.651 12.24C173.939 12.24 174.169 12.1733 174.339 12.04C174.515 11.9067 174.603 11.72 174.603 11.48C174.603 11.3307 174.571 11.208 174.507 11.112C174.449 11.0107 174.345 10.92 174.195 10.84C174.046 10.76 173.83 10.6773 173.547 10.592C172.945 10.4053 172.513 10.1813 172.251 9.92C171.995 9.65867 171.867 9.31733 171.867 8.896C171.867 8.58667 171.95 8.31467 172.115 8.08C172.281 7.84 172.51 7.656 172.803 7.528C173.097 7.4 173.43 7.336 173.803 7.336ZM181.919 8.76L181.015 13H179.631L179.023 9.776L178.415 13H177.047L176.119 8.76H177.263L177.783 12.16L178.487 8.76H179.623L180.255 12.16L180.831 8.76H181.919ZM183.68 8.76V13H182.544V8.76H183.68ZM183.104 6.576C183.307 6.576 183.472 6.64 183.6 6.768C183.734 6.89067 183.8 7.048 183.8 7.24C183.8 7.432 183.734 7.592 183.6 7.72C183.472 7.84267 183.307 7.904 183.104 7.904C182.902 7.904 182.736 7.84267 182.608 7.72C182.48 7.592 182.416 7.432 182.416 7.24C182.416 7.048 182.48 6.89067 182.608 6.768C182.736 6.64 182.902 6.576 183.104 6.576ZM187.138 7.336C187.512 7.336 187.842 7.39467 188.13 7.512C188.424 7.624 188.696 7.78667 188.946 8L188.33 8.64C188.133 8.49067 187.946 8.38133 187.77 8.312C187.6 8.24267 187.405 8.208 187.186 8.208C186.765 8.208 186.424 8.376 186.162 8.712C185.906 9.04267 185.778 9.54933 185.778 10.232C185.778 10.952 185.877 11.4693 186.074 11.784C186.277 12.0933 186.589 12.248 187.01 12.248C187.314 12.248 187.589 12.1813 187.834 12.048V10.696H187.058L186.938 9.84H188.978V12.568C188.69 12.744 188.378 12.8827 188.042 12.984C187.712 13.08 187.376 13.128 187.034 13.128C186.218 13.128 185.6 12.8827 185.178 12.392C184.757 11.9013 184.546 11.1787 184.546 10.224C184.546 9.62133 184.661 9.10133 184.89 8.664C185.12 8.22667 185.429 7.896 185.818 7.672C186.213 7.448 186.653 7.336 187.138 7.336ZM191.127 7.464V12.056H193.319L193.191 13H189.951V7.464H191.127ZM197.954 11.176C197.954 11.5547 197.874 11.8907 197.714 12.184C197.554 12.4773 197.314 12.7093 196.994 12.88C196.68 13.0453 196.296 13.128 195.842 13.128C195.16 13.128 194.637 12.952 194.274 12.6C193.917 12.2427 193.738 11.768 193.738 11.176V7.464H194.914V11.12C194.914 11.4933 194.989 11.7733 195.138 11.96C195.288 12.1413 195.522 12.232 195.842 12.232C196.162 12.232 196.397 12.1413 196.546 11.96C196.701 11.7733 196.778 11.4933 196.778 11.12V7.464H197.954V11.176Z" fill="#304443"/>
</svg>
