<svg viewBox="0 0 48 63" fill="currentColor" xmlns="http://www.w3.org/2000/svg" aria-hidden="true">
<path d="M17.158 45.5992C20.7492 49.2024 26.6053 49.2024 30.2026 45.5992C33.8298 41.9661 33.6266 36.0085 29.9994 32.3753L28.8819 31.2579L22.3567 37.7831C23.8088 39.2352 26.1631 39.2352 27.6152 37.7831L28.649 36.7495C29.605 38.7872 29.2465 41.2967 27.5615 42.9759C25.2488 45.2884 21.3767 45.1031 19.3152 42.4321C17.6062 40.2212 17.9528 37.0482 19.9306 35.0704L39.3391 15.6618C40.7913 14.2097 40.7913 11.8554 39.3391 10.4033L17.3612 32.3753C13.734 36.0026 13.5309 41.9661 17.158 45.5992Z"/>
<path d="M11.7683 50.6068C18.2756 57.3354 29.0854 57.3354 35.5927 50.6068C41.9208 44.0636 41.5623 33.5468 35.1267 27.105L34.0809 26.0594L31.4516 28.6887L32.5273 29.7642C37.475 34.7119 37.7559 43.0836 32.8559 48.0793C27.8246 53.2122 19.5365 53.2122 14.5051 48.0793C9.60515 43.0836 9.88601 34.7119 14.8337 29.7642L34.1407 10.4633C35.5927 9.01123 35.5927 6.65688 34.1407 5.20483L12.2344 27.105C5.79875 33.5407 5.44023 44.0577 11.7683 50.6068Z"/>
<path d="M40.2525 21.8285L39.2845 20.8605L36.6552 23.4897L37.677 24.5115C45.4931 32.3276 45.9292 45.0674 38.2865 53.0507C30.3332 61.3627 17.0316 61.3627 9.08418 53.0507C1.44747 45.0674 1.88368 32.3276 9.69369 24.5115L28.9468 5.25847C30.3989 3.80642 30.3989 1.45205 28.9468 0L7.11825 21.8285C-1.96455 30.9113 -2.50235 46.2804 6.35337 55.5784C15.7768 65.4739 31.5939 65.4739 41.0174 55.5784C49.8732 46.2804 49.3353 30.9054 40.2525 21.8285Z"/>
<path d="M21.0502 2.62922L18.4211 0C16.969 1.45205 16.969 3.80642 18.4211 5.25847L21.0502 2.62922Z"/>
<path d="M15.791 7.88728L13.1618 5.25806C11.7097 6.71011 11.7097 9.06447 13.1618 10.5165L15.791 7.88728Z"/>
<path d="M10.6861 13.0033L8.05681 10.374C6.60476 11.8261 6.60476 14.1804 8.05681 15.6325L10.6861 13.0033Z"/>
</svg>
